<?xml version="1.0" encoding="utf-8"?>
<!-- Generator: Adobe Illustrator 21.1.0, SVG Export Plug-In . SVG Version: 6.00 Build 0)  -->
<svg version="1.1" id="Слой_1" xmlns="http://www.w3.org/2000/svg" xmlns:xlink="http://www.w3.org/1999/xlink" x="0px" y="0px"
	 viewBox="0 0 500 146" style="enable-background:new 0 0 500 146;" xml:space="preserve">
<style type="text/css">
	.st0{display:none;}
</style>
<path class="st0" d="M430.6,257c6.8,0,12.4-5.6,12.4-12.4c0-6.8-5.6-12.4-12.4-12.4c-6.8,0-12.4,5.6-12.4,12.4
	c0,1.6,0.3,3.1,0.8,4.4l-30.4,31.2c-1.5-0.5-3.1-0.8-4.7-0.8c-5.7,0-10.6,3.4-12.8,8.2h-22.7c-0.4-0.7-0.9-1.4-1.5-2l21.8-57.4
	c6.6-0.7,11.9-6,12.5-12.7l17.8-10.3c1.8,1,3.9,1.6,6,1.6c6.8,0,12.4-5.6,12.4-12.4c0-6.8-5.6-12.4-12.4-12.4s-12.4,5.6-12.4,12.4
	c0,0.3,0,0.6,0,0.9l-15.5,8.9c-1.9-1.9-4.3-3.3-7-3.9l-2.6-34.9c3.9-2.5,6.4-6.9,6.4-11.8c0-7.8-6.3-14.1-14.1-14.1
	c-7.8,0-14.1,6.3-14.1,14.1c0,6.4,4.3,11.8,10.2,13.5l2.6,35.8c-3.4,2.6-5.5,6.6-5.5,11.2c0,4.1,1.7,7.7,4.5,10.3l-21.4,56.4
	c-2.8,0-5.3,0.9-7.5,2.3L303,268.3c-0.1-3.7-1.6-7.1-4-9.5l30.5-64.3l-11-59.3c2.4-2.5,3.9-5.9,3.9-9.7c0-7.8-6.3-14.1-14.1-14.1
	s-14.1,6.3-14.1,14.1c0,7.5,5.8,13.6,13.2,14l9.8,52.5c0.1,0.5,0,1-0.2,1.5l-28.3,59.8l-26.1-52.6c1.8-2.4,2.8-5.3,2.8-8.4
	c0-5.2-2.8-9.7-6.9-12.1v-155c0-3-2.5-5.5-5.5-5.5h-2.6c-3,0-5.5,2.5-5.5,5.5v154.6c-4.5,2.3-7.6,7.1-7.6,12.5
	c0,3.2,1.1,6.1,2.8,8.5l-26.2,52.8l-27.6-58.1c-0.2-0.5-0.3-1-0.2-1.5l10.1-54.5c7-0.8,12.5-6.8,12.5-14c0-7.8-6.3-14.1-14.1-14.1
	c-7.8,0-14.1,6.3-14.1,14.1c0,4,1.7,7.7,4.5,10.3l-11.2,60.7l29.6,62.5c-2.3,2.5-3.8,5.8-3.9,9.4l-26.3,15.2c-1.8-1.3-4-2.2-6.3-2.5
	l-21.4-56.5c2.8-2.6,4.5-6.2,4.5-10.3c0-4.6-2.2-8.6-5.5-11.2l2.6-35.8c5.9-1.7,10.2-7.1,10.2-13.5c0-7.8-6.3-14.1-14.1-14.1
	c-7.8,0-14.1,6.3-14.1,14.1c0,4.9,2.5,9.3,6.4,11.8l-2.6,34.9c-2.7,0.6-5.2,2-7,3.9l-15.5-8.9c0-0.3,0-0.6,0-0.9
	c0-6.8-5.6-12.4-12.4-12.4c-6.8,0-12.4,5.6-12.4,12.4c0,6.8,5.6,12.4,12.4,12.4c2.2,0,4.3-0.6,6-1.6l17.8,10.3
	c0.6,6.6,5.9,11.9,12.5,12.7l21.3,56.2c-1,0.9-1.9,2-2.7,3.2H132c-2.2-4.9-7.1-8.2-12.8-8.2c-1.7,0-3.3,0.3-4.9,0.9L84,249.1
	c0.5-1.4,0.8-2.9,0.8-4.4c0-6.8-5.6-12.4-12.4-12.4c-6.8,0-12.4,5.6-12.4,12.4c0,6.8,5.6,12.4,12.4,12.4c0.9,0,1.8-0.1,2.7-0.3
	l31,31.7c-0.6,1.5-0.9,3.2-0.9,5c0,2,0.4,4,1.2,5.7l-26.3,29.4c-0.2,0-0.4,0-0.6,0c-6.8,0-12.4,5.6-12.4,12.4s5.6,12.4,12.4,12.4
	c6.8,0,12.4-5.6,12.4-12.4c0-2.2-0.6-4.3-1.6-6.1l24.9-27.9c1.3,0.4,2.6,0.6,4.1,0.6c5.7,0,10.6-3.4,12.8-8.2h19.4
	c0.7,2.2,1.9,4.1,3.5,5.7l-23.4,62.4l-31.3,14c-1.7-0.9-3.7-1.4-5.8-1.4c-6.8,0-12.4,5.6-12.4,12.4s5.6,12.4,12.4,12.4
	c6.8,0,12.4-5.6,12.4-12.4c0-0.4,0-0.7-0.1-1.1l24.5-11l3.9,48.1c-3,2.3-5,5.8-5,9.9c0,6.8,5.6,12.4,12.4,12.4
	c6.8,0,12.4-5.6,12.4-12.4c0-5.4-3.4-10-8.2-11.7l-4.5-54.8l23.6-62.8c3.5-0.3,6.7-1.8,9-4.2l25.2,14.6c-0.4,1.4-0.7,2.8-0.7,4.4
	c0,3.5,1.3,6.7,3.4,9.2l-23.5,52.5c-0.1,0-0.2,0-0.4,0c-6.8,0-12.4,5.6-12.4,12.4c0,5.5,3.6,10.2,8.6,11.8l4,48.8
	c-2.4,2.3-3.9,5.4-3.9,9c0,6.8,5.6,12.4,12.4,12.4c6.8,0,12.4-5.6,12.4-12.4c0-5.8-4-10.7-9.4-12l-3.9-47.9c2.8-2.3,4.7-5.8,4.7-9.7
	c0-2.4-0.7-4.6-1.8-6.5l24-53.5c0,0,0,0,0.1,0c7.8,0,14.1-6.3,14.1-14.1c0-7.8-6.3-14.1-14.1-14.1c-1.8,0-3.5,0.4-5.1,1l-29.4-17
	l25.2-14.5c2.5,2.2,5.7,3.6,9.3,3.6c5.8,0,10.7-3.5,12.9-8.4H276c2.2,5,7.1,8.4,12.9,8.4c3.6,0,6.9-1.4,9.4-3.6l24.2,14
	c-0.1,0.6-0.1,1.1-0.1,1.7l-27.8,16.1c-1.7-0.8-3.6-1.2-5.6-1.2c-7.8,0-14.1,6.3-14.1,14.1c0,7.8,6.3,14.1,14.1,14.1
	c0.3,0,0.6,0,0.9,0l23.6,52.6c-1.5,2.1-2.5,4.6-2.5,7.4c0,4,1.9,7.5,4.8,9.8l-5.2,47.8c-2.5,0.6-4.9,2-6.7,4.2
	c-4.3,5.3-3.5,13.1,1.8,17.4c5.3,4.3,13.1,3.5,17.4-1.8c4.1-5.1,3.6-12.4-1.1-16.8l5.4-48.9c4.9-1.6,8.5-6.3,8.5-11.8
	c0-6.6-5.2-12-11.7-12.4l-23.9-53.2c1.8-2.4,2.8-5.3,2.8-8.5c0-1.4-0.2-2.7-0.6-3.9l24.7-14.3c2.5,2.2,5.7,3.5,9.3,3.5
	c0.2,0,0.5,0,0.7,0l23.4,62.4l-4.4,54c-2.1,0.7-4.1,2-5.6,3.9c-4.3,5.3-3.5,13.1,1.8,17.4c5.3,4.3,13.1,3.5,17.4-1.8
	c4.3-5.3,3.5-13.1-1.8-17.4c-0.1-0.1-0.2-0.1-0.2-0.2l3.9-47.5l24.7,11.1c-0.1,0.5-0.1,0.9-0.1,1.4c0,6.8,5.6,12.4,12.4,12.4
	c6.8,0,12.4-5.6,12.4-12.4s-5.6-12.4-12.4-12.4c-1.9,0-3.8,0.5-5.4,1.3l-31.8-14.3l-23.8-63.4c1-1.3,1.7-2.7,2.3-4.3h21.3
	c2.2,4.9,7.1,8.2,12.8,8.2c1.4,0,2.7-0.2,4-0.6l24.8,27.8c-1,1.8-1.6,3.9-1.6,6.1c0,6.8,5.6,12.4,12.4,12.4
	c6.8,0,12.4-5.6,12.4-12.4s-5.6-12.4-12.4-12.4c-0.2,0-0.4,0-0.6,0l-26.2-29.2c0.8-1.8,1.3-3.7,1.3-5.8c0-1.8-0.4-3.5-1-5.1
	l30.9-31.7C428.8,256.9,429.7,257,430.6,257z M224,259.3l26.3-52.9c0.3,0,0.6,0,0.9,0c0.3,0,0.7,0,1,0l26.2,52.8
	c-0.9,1-1.7,2.1-2.3,3.4h-49.9C225.7,261.4,224.9,260.2,224,259.3z"/>
<g>
	<path d="M69.9,21H37.9v7.3h32.1c0.2,0,0.3,0.1,0.3,0.3v12.1c0,0.2-0.1,0.3-0.3,0.3H37.9v7.3h0v20.6h31.6c4.3,0,7.8-3.5,7.8-7.8
		V49.4c0-1.5-0.4-2.9-1.2-4.1c1-1.3,1.7-2.9,1.7-4.7V28.5C77.7,24.3,74.2,21,69.9,21z M69.8,61c0,0.2-0.1,0.3-0.3,0.3H45.4V49.1
		h24.1c0.2,0,0.3,0.1,0.3,0.3V61z"/>
	<path d="M182.5,21h-32.1v7.3h32.1c0.2,0,0.3,0.1,0.3,0.3v12.1c0,0.2-0.1,0.3-0.3,0.3h-32.1v7.3h0v20.6h31.5c4.4,0,7.9-3.6,7.9-7.9
		V49.4c0-1.5-0.4-2.9-1.2-4.1c1-1.3,1.7-2.9,1.7-4.7V28.5C190.3,24.3,186.8,21,182.5,21z M182.3,60.9c0,0.2-0.2,0.4-0.4,0.4h-24
		V49.1H182c0.2,0,0.3,0.1,0.3,0.3V60.9z"/>
	<path d="M97.9,29.3v31.2c0,4.6,3.7,8.3,8.3,8.3h26.3v-7.5h-26.3c-0.5,0-0.8-0.4-0.8-0.8V29.3c0-0.5,0.4-0.8,0.8-0.8h26.3V21h-26.3
		C101.6,21,97.9,24.7,97.9,29.3z"/>
	<path d="M109.2,40.7c-0.5,0-0.9,0.4-0.9,0.9v6.6c0,0.5,0.4,0.9,0.9,0.9h15c0.5,0,0.9-0.4,0.9-0.9v-6.6c0-0.5-0.4-0.9-0.9-0.9H109.2
		z"/>
	<path d="M209.5,29.3v31.2c0,4.6,3.7,8.3,8.3,8.3h26.3v-7.5h-26.3c-0.5,0-0.8-0.4-0.8-0.8V29.3c0-0.5,0.4-0.8,0.8-0.8h26.3V21h-26.3
		C213.3,21,209.5,24.7,209.5,29.3z"/>
	<path d="M220.8,40.7c-0.5,0-0.9,0.4-0.9,0.9v6.6c0,0.5,0.4,0.9,0.9,0.9h15c0.5,0,0.9-0.4,0.9-0.9v-6.6c0-0.5-0.4-0.9-0.9-0.9H220.8
		z"/>
	<path d="M369,29.3v31.2c0,4.6,3.7,8.3,8.3,8.3h26.3v-7.5h-26.3c-0.5,0-0.8-0.4-0.8-0.8V29.3c0-0.5,0.4-0.8,0.8-0.8h26.3V21h-26.3
		C372.8,21,369,24.7,369,29.3z"/>
	<path d="M380.3,40.7c-0.5,0-0.9,0.4-0.9,0.9v6.6c0,0.5,0.4,0.9,0.9,0.9h15c0.5,0,0.9-0.4,0.9-0.9v-6.6c0-0.5-0.4-0.9-0.9-0.9H380.3
		z"/>
	<path d="M298.7,21h-37.5c-0.5,0-0.9,0.4-0.9,0.9v5.6c0,0.5,0.4,0.9,0.9,0.9h14.1v39.4c0,0.5,0.4,0.9,0.9,0.9h5.6
		c0.5,0,0.9-0.4,0.9-0.9V28.5h15.9c0.5,0,0.9-0.4,0.9-0.9v-5.6C299.6,21.4,299.2,21,298.7,21z"/>
	<path d="M352.2,21h-37.5c-0.5,0-0.9,0.4-0.9,0.9v5.6c0,0.5,0.4,0.9,0.9,0.9h14.1v39.4c0,0.5,0.4,0.9,0.9,0.9h5.6
		c0.5,0,0.9-0.4,0.9-0.9V28.5h15.9c0.5,0,0.9-0.4,0.9-0.9v-5.6C353.1,21.4,352.7,21,352.2,21z"/>
	<path d="M460.8,69.1l-12-17.1c0,0-0.1-0.1-0.1-0.1h4.2c4.2,0,7.6-3.9,7.6-8.6V29.6c0-4.7-3.4-8.6-7.6-8.6h-31.3v8.3h31.3
		c0.2,0,0.3,0.2,0.3,0.3v13.8c0,0.2-0.1,0.3-0.3,0.3h-31.3v3.2v5.1v17.8h7.5V51.9h10.6c-0.1,0-0.2,0.1-0.1,0.3l11,17.1
		c0,0,0.1,0.1,0.1,0.1h9.9C460.8,69.3,460.9,69.2,460.8,69.1z"/>
</g>
<g>
	<path d="M21.5,95.8h-8.4v29.1h8.4c8,0,14.5-6.5,14.5-14.6C36.1,102.4,29.5,95.8,21.5,95.8z M21.5,122.1H16V98.7h5.5
		c6.5,0,11.7,5.3,11.7,11.7C33.2,116.9,28,122.1,21.5,122.1z"/>
	<circle cx="23.7" cy="110.6" r="2.2"/>
	<polygon points="58.5,95.3 58.5,98.6 58.5,104.6 58.5,107.9 58.5,112 58.5,115.3 58.5,122.1 58.5,125.4 61.2,125.4 77.4,125.4 
		77.4,122.1 61.2,122.1 61.2,115.3 74.9,115.3 74.9,112 61.2,112 61.2,107.9 74.9,107.9 74.9,104.6 61.2,104.6 61.2,98.6 77.4,98.6 
		77.4,95.3 61.2,95.3 	"/>
	<polygon points="149.3,95.3 149.3,98.6 149.3,104.6 149.3,107.9 149.3,112 149.3,115.3 149.3,122.1 149.3,125.4 152,125.4 
		168.2,125.4 168.2,122.1 152,122.1 152,115.3 165.8,115.3 165.8,112 152,112 152,107.9 165.8,107.9 165.8,104.6 152,104.6 
		152,98.6 168.2,98.6 168.2,95.3 152,95.3 	"/>
	<polygon points="383.9,95.3 383.9,98.6 383.9,104.6 383.9,107.9 383.9,112 383.9,115.3 383.9,122.1 383.9,125.4 386.6,125.4 
		402.8,125.4 402.8,122.1 386.6,122.1 386.6,115.3 400.3,115.3 400.3,112 386.6,112 386.6,107.9 400.3,107.9 400.3,104.6 
		386.6,104.6 386.6,98.6 402.8,98.6 402.8,95.3 386.6,95.3 	"/>
	<polygon points="193.4,95.3 190.7,95.3 190.7,122.1 190.7,125.4 193.4,125.4 209.5,125.4 209.5,122.1 193.4,122.1 	"/>
	<polygon points="113.2,117.2 103,95.1 99.9,95.1 113.1,123.9 126.6,95.1 123.4,95.1 	"/>
	<polygon points="341.5,109.9 335.1,96 321.7,124.8 324.8,124.8 335.1,102.7 340,113.2 334.6,124.8 337.7,124.8 341.5,116.6 
		345.3,124.8 348.4,124.8 343.1,113.2 348,102.7 358.1,124.8 361.2,124.8 348,96 	"/>
	<path d="M244.3,94.7c-8.6,0-15.6,7-15.6,15.6c0,8.6,7,15.6,15.6,15.6c8.6,0,15.6-7,15.6-15.6C259.9,101.7,252.9,94.7,244.3,94.7z
		 M244.3,123.2c-7.1,0-12.8-5.8-12.8-12.8c0-7.1,5.8-12.8,12.8-12.8c7.1,0,12.8,5.8,12.8,12.8C257.1,117.4,251.3,123.2,244.3,123.2z
		"/>
	<circle cx="244.3" cy="110.4" r="2.2"/>
	<path d="M294.2,95.1H282v2.8h12.2c3.2,0,5.8,2.6,5.8,5.8c0,3.2-2.6,5.8-5.8,5.8h-9.3H282v2.8v12.5h2.9v-12.5h9.3
		c4.8,0,8.6-3.9,8.6-8.6C302.8,98.9,298.9,95.1,294.2,95.1z"/>
	<polygon points="488.9,98.3 488.9,95.2 469.3,95.2 469.3,98.3 477.6,98.3 477.6,104.8 472.2,104.8 472.2,107.9 477.6,107.9 
		477.6,125.5 480.7,125.5 480.7,107.9 486,107.9 486,104.8 480.7,104.8 480.7,98.3 	"/>
	<path d="M443.4,118.7l-15.3-24l0,0v0H425v30.8h0h3.1h15.3h3.1v-3.1V94.7h-3.1V118.7z M428.1,100.4l14,22h-14V100.4z"/>
</g>
</svg>
