<?xml version="1.0" encoding="utf-8"?>
<!-- Generator: Adobe Illustrator 21.1.0, SVG Export Plug-In . SVG Version: 6.00 Build 0)  -->
<svg version="1.1" id="Слой_1" xmlns="http://www.w3.org/2000/svg" xmlns:xlink="http://www.w3.org/1999/xlink" x="0px" y="0px"
	 viewBox="0 0 500 500" style="enable-background:new 0 0 500 500;" xml:space="preserve">
<path d="M430.6,257c6.8,0,12.4-5.6,12.4-12.4c0-6.8-5.6-12.4-12.4-12.4c-6.8,0-12.4,5.6-12.4,12.4c0,1.6,0.3,3.1,0.8,4.4l-30.4,31.2
	c-1.5-0.5-3.1-0.8-4.7-0.8c-5.7,0-10.6,3.4-12.8,8.2h-22.7c-0.4-0.7-0.9-1.4-1.5-2l21.8-57.4c6.6-0.7,11.9-6,12.5-12.7l17.8-10.3
	c1.8,1,3.9,1.6,6,1.6c6.8,0,12.4-5.6,12.4-12.4c0-6.8-5.6-12.4-12.4-12.4s-12.4,5.6-12.4,12.4c0,0.3,0,0.6,0,0.9l-15.5,8.9
	c-1.9-1.9-4.3-3.3-7-3.9l-2.6-34.9c3.9-2.5,6.4-6.9,6.4-11.8c0-7.8-6.3-14.1-14.1-14.1c-7.8,0-14.1,6.3-14.1,14.1
	c0,6.4,4.3,11.8,10.2,13.5l2.6,35.8c-3.4,2.6-5.5,6.6-5.5,11.2c0,4.1,1.7,7.7,4.5,10.3l-21.4,56.4c-2.8,0-5.3,0.9-7.5,2.3L303,268.3
	c-0.1-3.7-1.6-7.1-4-9.5l30.5-64.3l-11-59.3c2.4-2.5,3.9-5.9,3.9-9.7c0-7.8-6.3-14.1-14.1-14.1s-14.1,6.3-14.1,14.1
	c0,7.5,5.8,13.6,13.2,14l9.8,52.5c0.1,0.5,0,1-0.2,1.5l-28.3,59.8l-26.1-52.6c1.8-2.4,2.8-5.3,2.8-8.4c0-5.2-2.8-9.7-6.9-12.1v-155
	c0-3-2.5-5.5-5.5-5.5h-2.6c-3,0-5.5,2.5-5.5,5.5v154.6c-4.5,2.3-7.6,7.1-7.6,12.5c0,3.2,1.1,6.1,2.8,8.5l-26.2,52.8l-27.6-58.1
	c-0.2-0.5-0.3-1-0.2-1.5l10.1-54.5c7-0.8,12.5-6.8,12.5-14c0-7.8-6.3-14.1-14.1-14.1c-7.8,0-14.1,6.3-14.1,14.1
	c0,4,1.7,7.7,4.5,10.3l-11.2,60.7l29.6,62.5c-2.3,2.5-3.8,5.8-3.9,9.4l-26.3,15.2c-1.8-1.3-4-2.2-6.3-2.5l-21.4-56.5
	c2.8-2.6,4.5-6.2,4.5-10.3c0-4.6-2.2-8.6-5.5-11.2l2.6-35.8c5.9-1.7,10.2-7.1,10.2-13.5c0-7.8-6.3-14.1-14.1-14.1
	c-7.8,0-14.1,6.3-14.1,14.1c0,4.9,2.5,9.3,6.4,11.8l-2.6,34.9c-2.7,0.6-5.2,2-7,3.9l-15.5-8.9c0-0.3,0-0.6,0-0.9
	c0-6.8-5.6-12.4-12.4-12.4c-6.8,0-12.4,5.6-12.4,12.4c0,6.8,5.6,12.4,12.4,12.4c2.2,0,4.3-0.6,6-1.6l17.8,10.3
	c0.6,6.6,5.9,11.9,12.5,12.7l21.3,56.2c-1,0.9-1.9,2-2.7,3.2H132c-2.2-4.9-7.1-8.2-12.8-8.2c-1.7,0-3.3,0.3-4.9,0.9L84,249.1
	c0.5-1.4,0.8-2.9,0.8-4.4c0-6.8-5.6-12.4-12.4-12.4c-6.8,0-12.4,5.6-12.4,12.4c0,6.8,5.6,12.4,12.4,12.4c0.9,0,1.8-0.1,2.7-0.3
	l31,31.7c-0.6,1.5-0.9,3.2-0.9,5c0,2,0.4,4,1.2,5.7l-26.3,29.4c-0.2,0-0.4,0-0.6,0c-6.8,0-12.4,5.6-12.4,12.4s5.6,12.4,12.4,12.4
	c6.8,0,12.4-5.6,12.4-12.4c0-2.2-0.6-4.3-1.6-6.1l24.9-27.9c1.3,0.4,2.6,0.6,4.1,0.6c5.7,0,10.6-3.4,12.8-8.2h19.4
	c0.7,2.2,1.9,4.1,3.5,5.7l-23.4,62.4l-31.3,14c-1.7-0.9-3.7-1.4-5.8-1.4c-6.8,0-12.4,5.6-12.4,12.4s5.6,12.4,12.4,12.4
	c6.8,0,12.4-5.6,12.4-12.4c0-0.4,0-0.7-0.1-1.1l24.5-11l3.9,48.1c-3,2.3-5,5.8-5,9.9c0,6.8,5.6,12.4,12.4,12.4
	c6.8,0,12.4-5.6,12.4-12.4c0-5.4-3.4-10-8.2-11.7l-4.5-54.8l23.6-62.8c3.5-0.3,6.7-1.8,9-4.2l25.2,14.6c-0.4,1.4-0.7,2.8-0.7,4.4
	c0,3.5,1.3,6.7,3.4,9.2l-23.5,52.5c-0.1,0-0.2,0-0.4,0c-6.8,0-12.4,5.6-12.4,12.4c0,5.5,3.6,10.2,8.6,11.8l4,48.8
	c-2.4,2.3-3.9,5.4-3.9,9c0,6.8,5.6,12.4,12.4,12.4c6.8,0,12.4-5.6,12.4-12.4c0-5.8-4-10.7-9.4-12l-3.9-47.9c2.8-2.3,4.7-5.8,4.7-9.7
	c0-2.4-0.7-4.6-1.8-6.5l24-53.5c0,0,0,0,0.1,0c7.8,0,14.1-6.3,14.1-14.1c0-7.8-6.3-14.1-14.1-14.1c-1.8,0-3.5,0.4-5.1,1l-29.4-17
	l25.2-14.5c2.5,2.2,5.7,3.6,9.3,3.6c5.8,0,10.7-3.5,12.9-8.4H276c2.2,5,7.1,8.4,12.9,8.4c3.6,0,6.9-1.4,9.4-3.6l24.2,14
	c-0.1,0.6-0.1,1.1-0.1,1.7l-27.8,16.1c-1.7-0.8-3.6-1.2-5.6-1.2c-7.8,0-14.1,6.3-14.1,14.1c0,7.8,6.3,14.1,14.1,14.1
	c0.3,0,0.6,0,0.9,0l23.6,52.6c-1.5,2.1-2.5,4.6-2.5,7.4c0,4,1.9,7.5,4.8,9.8l-5.2,47.8c-2.5,0.6-4.9,2-6.7,4.2
	c-4.3,5.3-3.5,13.1,1.8,17.4c5.3,4.3,13.1,3.5,17.4-1.8c4.1-5.1,3.6-12.4-1.1-16.8l5.4-48.9c4.9-1.6,8.5-6.3,8.5-11.8
	c0-6.6-5.2-12-11.7-12.4l-23.9-53.2c1.8-2.4,2.8-5.3,2.8-8.5c0-1.4-0.2-2.7-0.6-3.9l24.7-14.3c2.5,2.2,5.7,3.5,9.3,3.5
	c0.2,0,0.5,0,0.7,0l23.4,62.4l-4.4,54c-2.1,0.7-4.1,2-5.6,3.9c-4.3,5.3-3.5,13.1,1.8,17.4c5.3,4.3,13.1,3.5,17.4-1.8
	c4.3-5.3,3.5-13.1-1.8-17.4c-0.1-0.1-0.2-0.1-0.2-0.2l3.9-47.5l24.7,11.1c-0.1,0.5-0.1,0.9-0.1,1.4c0,6.8,5.6,12.4,12.4,12.4
	c6.8,0,12.4-5.6,12.4-12.4s-5.6-12.4-12.4-12.4c-1.9,0-3.8,0.5-5.4,1.3l-31.8-14.3l-23.8-63.4c1-1.3,1.7-2.7,2.3-4.3h21.3
	c2.2,4.9,7.1,8.2,12.8,8.2c1.4,0,2.7-0.2,4-0.6l24.8,27.8c-1,1.8-1.6,3.9-1.6,6.1c0,6.8,5.6,12.4,12.4,12.4
	c6.8,0,12.4-5.6,12.4-12.4s-5.6-12.4-12.4-12.4c-0.2,0-0.4,0-0.6,0l-26.2-29.2c0.8-1.8,1.3-3.7,1.3-5.8c0-1.8-0.4-3.5-1-5.1
	l30.9-31.7C428.8,256.9,429.7,257,430.6,257z M224,259.3l26.3-52.9c0.3,0,0.6,0,0.9,0c0.3,0,0.7,0,1,0l26.2,52.8
	c-0.9,1-1.7,2.1-2.3,3.4h-49.9C225.7,261.4,224.9,260.2,224,259.3z"/>
</svg>
