<?xml version="1.0" encoding="utf-8"?>
<!-- Generator: Adobe Illustrator 21.1.0, SVG Export Plug-In . SVG Version: 6.00 Build 0)  -->
<svg version="1.1" id="Слой_1" xmlns="http://www.w3.org/2000/svg" xmlns:xlink="http://www.w3.org/1999/xlink" x="0px" y="0px"
	 viewBox="0 0 500 500" style="enable-background:new 0 0 500 500;" xml:space="preserve">
<g>
	<path d="M72.5,328.8H40.7v7.2h31.8c0.2,0,0.3,0.1,0.3,0.3v12c0,0.2-0.1,0.3-0.3,0.3H40.7v7.2h0v20.5H72c4.3,0,7.8-3.5,7.8-7.8V357
		c0-1.5-0.4-2.9-1.2-4.1c1-1.3,1.7-2.9,1.7-4.6v-12C80.2,332.1,76.8,328.8,72.5,328.8z M72.3,368.5c0,0.2-0.1,0.3-0.3,0.3H48.1
		v-12.1H72c0.2,0,0.3,0.1,0.3,0.3V368.5z"/>
	<path d="M184.2,328.8h-31.8v7.2h31.8c0.2,0,0.3,0.1,0.3,0.3v12c0,0.2-0.1,0.3-0.3,0.3h-31.8v7.2h0v20.5h31.2c4.3,0,7.9-3.5,7.9-7.9
		V357c0-1.5-0.4-2.9-1.2-4.1c1-1.3,1.7-2.9,1.7-4.6v-12C192,332.1,188.5,328.8,184.2,328.8z M184,368.4c0,0.2-0.2,0.4-0.4,0.4h-23.8
		v-12.1h23.9c0.2,0,0.3,0.1,0.3,0.3V368.4z"/>
	<path d="M100.3,337v31c0,4.6,3.7,8.3,8.3,8.3h26.1v-7.4h-26.1c-0.4,0-0.8-0.4-0.8-0.8v-31c0-0.4,0.4-0.8,0.8-0.8h26.1v-7.4h-26.1
		C104,328.8,100.3,332.5,100.3,337z"/>
	<path d="M111.4,348.3c-0.5,0-0.9,0.4-0.9,0.9v6.5c0,0.5,0.4,0.9,0.9,0.9h14.9c0.5,0,0.9-0.4,0.9-0.9v-6.5c0-0.5-0.4-0.9-0.9-0.9
		H111.4z"/>
	<path d="M211,337v31c0,4.6,3.7,8.3,8.3,8.3h26.1v-7.4h-26.1c-0.4,0-0.8-0.4-0.8-0.8v-31c0-0.4,0.4-0.8,0.8-0.8h26.1v-7.4h-26.1
		C214.8,328.8,211,332.5,211,337z"/>
	<path d="M222.2,348.3c-0.5,0-0.9,0.4-0.9,0.9v6.5c0,0.5,0.4,0.9,0.9,0.9h14.9c0.5,0,0.9-0.4,0.9-0.9v-6.5c0-0.5-0.4-0.9-0.9-0.9
		H222.2z"/>
	<path d="M369.3,337v31c0,4.6,3.7,8.3,8.3,8.3h26.1v-7.4h-26.1c-0.4,0-0.8-0.4-0.8-0.8v-31c0-0.4,0.4-0.8,0.8-0.8h26.1v-7.4h-26.1
		C373,328.8,369.3,332.5,369.3,337z"/>
	<path d="M380.5,348.3c-0.5,0-0.9,0.4-0.9,0.9v6.5c0,0.5,0.4,0.9,0.9,0.9h14.9c0.5,0,0.9-0.4,0.9-0.9v-6.5c0-0.5-0.4-0.9-0.9-0.9
		H380.5z"/>
	<path d="M299.5,328.8h-37.2c-0.5,0-0.9,0.4-0.9,0.9v5.6c0,0.5,0.4,0.9,0.9,0.9h14v39.1c0,0.5,0.4,0.9,0.9,0.9h5.6
		c0.5,0,0.9-0.4,0.9-0.9v-39.1h15.8c0.5,0,0.9-0.4,0.9-0.9v-5.6C300.4,329.2,300,328.8,299.5,328.8z"/>
	<path d="M352.6,328.8h-37.2c-0.5,0-0.9,0.4-0.9,0.9v5.6c0,0.5,0.4,0.9,0.9,0.9h14v39.1c0,0.5,0.4,0.9,0.9,0.9h5.6
		c0.5,0,0.9-0.4,0.9-0.9v-39.1h15.8c0.5,0,0.9-0.4,0.9-0.9v-5.6C353.5,329.2,353.1,328.8,352.6,328.8z"/>
	<path d="M460.4,376.5l-11.9-17c0,0-0.1-0.1-0.1-0.1h4.2c4.2,0,7.5-3.8,7.5-8.5v-13.7c0-4.7-3.4-8.5-7.5-8.5h-31.1v8.2h31.1
		c0.2,0,0.3,0.2,0.3,0.3v13.7c0,0.2-0.1,0.3-0.3,0.3h-31.1v3.2v5v17.7h7.4v-17.7h10.5c-0.1,0-0.2,0.1-0.1,0.3l11,17
		c0,0,0.1,0.1,0.1,0.1h9.8C460.4,376.8,460.5,376.6,460.4,376.5z"/>
</g>
<g>
	<path d="M24.4,403.1h-8.3v28.9h8.3c8,0,14.4-6.5,14.4-14.4C38.9,409.5,32.4,403.1,24.4,403.1z M24.4,429.2h-5.5v-23.3h5.5
		c6.4,0,11.6,5.2,11.6,11.6C36.1,423.9,30.9,429.2,24.4,429.2z"/>
	<circle cx="26.6" cy="417.7" r="2.2"/>
	<polygon points="61.1,402.5 61.1,405.8 61.1,411.8 61.1,415 61.1,419.2 61.1,422.4 61.1,429.2 61.1,432.4 63.8,432.4 79.9,432.4 
		79.9,429.2 63.8,429.2 63.8,422.4 77.4,422.4 77.4,419.2 63.8,419.2 63.8,415 77.4,415 77.4,411.8 63.8,411.8 63.8,405.8 
		79.9,405.8 79.9,402.5 63.8,402.5 	"/>
	<polygon points="151.3,402.5 151.3,405.8 151.3,411.8 151.3,415 151.3,419.2 151.3,422.4 151.3,429.2 151.3,432.4 154,432.4 
		170,432.4 170,429.2 154,429.2 154,422.4 167.6,422.4 167.6,419.2 154,419.2 154,415 167.6,415 167.6,411.8 154,411.8 154,405.8 
		170,405.8 170,402.5 154,402.5 	"/>
	<polygon points="384.1,402.5 384.1,405.8 384.1,411.8 384.1,415 384.1,419.2 384.1,422.4 384.1,429.2 384.1,432.4 386.7,432.4 
		402.8,432.4 402.8,429.2 386.7,429.2 386.7,422.4 400.3,422.4 400.3,419.2 386.7,419.2 386.7,415 400.3,415 400.3,411.8 
		386.7,411.8 386.7,405.8 402.8,405.8 402.8,402.5 386.7,402.5 	"/>
	<polygon points="195,402.5 192.3,402.5 192.3,429.2 192.3,432.4 195,432.4 211,432.4 211,429.2 195,429.2 	"/>
	<polygon points="115.4,424.2 105.3,402.3 102.3,402.3 115.4,430.9 128.7,402.3 125.6,402.3 	"/>
	<polygon points="342,417 335.7,403.2 322.4,431.8 325.5,431.8 335.7,409.8 340.5,420.3 335.1,431.8 338.2,431.8 342,423.6 
		345.7,431.8 348.8,431.8 343.5,420.3 348.4,409.8 358.5,431.8 361.5,431.8 348.4,403.2 	"/>
	<path d="M245.5,402c-8.6,0-15.5,7-15.5,15.5c0,8.6,7,15.5,15.5,15.5c8.6,0,15.5-7,15.5-15.5C261,408.9,254.1,402,245.5,402z
		 M245.5,430.2c-7,0-12.7-5.7-12.7-12.7c0-7,5.7-12.7,12.7-12.7c7,0,12.7,5.7,12.7,12.7C258.2,424.5,252.5,430.2,245.5,430.2z"/>
	<circle cx="245.5" cy="417.5" r="2.2"/>
	<path d="M295,402.3h-12.1v2.8H295c3.2,0,5.8,2.6,5.8,5.8c0,3.2-2.6,5.8-5.8,5.8h-9.2h-2.9v2.8v12.4h2.9v-12.4h9.2
		c4.7,0,8.6-3.8,8.6-8.6C303.6,406.1,299.7,402.3,295,402.3z"/>
	<polygon points="488.3,405.5 488.3,402.4 468.8,402.4 468.8,405.5 477,405.5 477,412 471.7,412 471.7,415.1 477,415.1 477,432.5 
		480.1,432.5 480.1,415.1 485.4,415.1 485.4,412 480.1,412 480.1,405.5 	"/>
	<path d="M443.1,425.8l-15.2-23.9l0,0v0h-3.1v30.6h0h3h15.2h3.1v-3.1v-27.5h-3.1V425.8z M427.9,407.6l13.9,21.8h-13.9V407.6z"/>
</g>
<path d="M341.1,176.1c3.5,0,6.3-2.8,6.3-6.3c0-3.5-2.8-6.3-6.3-6.3s-6.3,2.8-6.3,6.3c0,0.8,0.2,1.6,0.4,2.3l-15.4,15.8
	c-0.7-0.3-1.5-0.4-2.4-0.4c-2.9,0-5.4,1.7-6.5,4.2h-11.5c-0.2-0.4-0.5-0.7-0.7-1l11-29.1c3.4-0.4,6-3,6.3-6.4l9-5.2
	c0.9,0.5,2,0.8,3.1,0.8c3.5,0,6.3-2.8,6.3-6.3c0-3.5-2.8-6.3-6.3-6.3c-3.5,0-6.3,2.8-6.3,6.3c0,0.2,0,0.3,0,0.5l-7.8,4.5
	c-1-1-2.2-1.7-3.6-2l-1.3-17.7c2-1.3,3.2-3.5,3.2-6c0-3.9-3.2-7.1-7.1-7.1c-3.9,0-7.1,3.2-7.1,7.1c0,3.3,2.2,6,5.1,6.9l1.3,18.1
	c-1.7,1.3-2.8,3.4-2.8,5.7c0,2.1,0.9,3.9,2.3,5.2l-10.8,28.6c-1.4,0-2.7,0.4-3.8,1.2l-13-7.5c0-1.9-0.8-3.6-2-4.8l15.4-32.5l-5.6-30
	c1.2-1.3,2-3,2-4.9c0-3.9-3.2-7.1-7.1-7.1c-3.9,0-7.1,3.2-7.1,7.1c0,3.8,3,6.9,6.7,7.1l4.9,26.6c0,0.3,0,0.5-0.1,0.8l-14.4,30.3
	l-13.2-26.6c0.9-1.2,1.4-2.7,1.4-4.3c0-2.6-1.4-4.9-3.5-6.1V58.7c0-1.5-1.3-2.8-2.8-2.8h-1.3c-1.5,0-2.8,1.3-2.8,2.8v78.3
	c-2.3,1.2-3.9,3.6-3.9,6.3c0,1.6,0.5,3.1,1.4,4.3l-13.3,26.7l-14-29.4c-0.1-0.2-0.1-0.5-0.1-0.8l5.1-27.6c3.6-0.4,6.3-3.4,6.3-7.1
	c0-3.9-3.2-7.1-7.1-7.1c-3.9,0-7.1,3.2-7.1,7.1c0,2.1,0.9,3.9,2.3,5.2l-5.7,30.7l15,31.6c-1.2,1.3-1.9,2.9-2,4.8l-13.3,7.7
	c-0.9-0.7-2-1.1-3.2-1.3l-10.8-28.6c1.4-1.3,2.3-3.2,2.3-5.2c0-2.3-1.1-4.4-2.8-5.7l1.3-18.1c3-0.9,5.1-3.6,5.1-6.9
	c0-3.9-3.2-7.1-7.1-7.1c-3.9,0-7.1,3.2-7.1,7.1c0,2.5,1.3,4.7,3.2,6l-1.3,17.7c-1.4,0.3-2.6,1-3.6,2l-7.8-4.5c0-0.2,0-0.3,0-0.5
	c0-3.5-2.8-6.3-6.3-6.3c-3.5,0-6.3,2.8-6.3,6.3c0,3.5,2.8,6.3,6.3,6.3c1.1,0,2.2-0.3,3.1-0.8l9,5.2c0.3,3.4,3,6,6.3,6.4l10.8,28.4
	c-0.5,0.5-1,1-1.4,1.6h-10.6c-1.1-2.5-3.6-4.2-6.5-4.2c-0.9,0-1.7,0.2-2.5,0.4l-15.4-15.8c0.3-0.7,0.4-1.5,0.4-2.3
	c0-3.5-2.8-6.3-6.3-6.3c-3.5,0-6.3,2.8-6.3,6.3c0,3.5,2.8,6.3,6.3,6.3c0.5,0,0.9-0.1,1.3-0.1l15.7,16.1c-0.3,0.8-0.5,1.6-0.5,2.5
	c0,1,0.2,2,0.6,2.9l-13.3,14.9c-0.1,0-0.2,0-0.3,0c-3.5,0-6.3,2.8-6.3,6.3c0,3.5,2.8,6.3,6.3,6.3c3.5,0,6.3-2.8,6.3-6.3
	c0-1.1-0.3-2.2-0.8-3.1l12.6-14.1c0.7,0.2,1.3,0.3,2.1,0.3c2.9,0,5.4-1.7,6.5-4.2h9.8c0.4,1.1,1,2.1,1.8,2.9L189.6,232l-15.9,7.1
	c-0.9-0.5-1.9-0.7-2.9-0.7c-3.5,0-6.3,2.8-6.3,6.3c0,3.5,2.8,6.3,6.3,6.3c3.5,0,6.3-2.8,6.3-6.3c0-0.2,0-0.4,0-0.5l12.4-5.6l2,24.4
	c-1.5,1.1-2.5,3-2.5,5c0,3.5,2.8,6.3,6.3,6.3c3.5,0,6.3-2.8,6.3-6.3c0-2.7-1.7-5-4.2-5.9l-2.3-27.8l11.9-31.8
	c1.8-0.1,3.4-0.9,4.5-2.1l12.8,7.4c-0.2,0.7-0.4,1.4-0.4,2.2c0,1.8,0.7,3.4,1.7,4.6l-11.9,26.6c-0.1,0-0.1,0-0.2,0
	c-3.5,0-6.3,2.8-6.3,6.3c0,2.8,1.8,5.1,4.3,6l2,24.7c-1.2,1.1-2,2.8-2,4.6c0,3.5,2.8,6.3,6.3,6.3s6.3-2.8,6.3-6.3
	c0-2.9-2-5.4-4.8-6.1l-2-24.3c1.4-1.2,2.4-2.9,2.4-4.9c0-1.2-0.3-2.3-0.9-3.3l12.1-27.1c0,0,0,0,0,0c3.9,0,7.1-3.2,7.1-7.1
	s-3.2-7.1-7.1-7.1c-0.9,0-1.8,0.2-2.6,0.5l-14.9-8.6l12.8-7.4c1.3,1.1,2.9,1.8,4.7,1.8c2.9,0,5.4-1.8,6.5-4.3h25.1
	c1.1,2.5,3.6,4.3,6.5,4.3c1.8,0,3.5-0.7,4.7-1.8l12.3,7.1c0,0.3-0.1,0.6-0.1,0.9l-14.1,8.1c-0.9-0.4-1.8-0.6-2.9-0.6
	c-3.9,0-7.1,3.2-7.1,7.1s3.2,7.1,7.1,7.1c0.2,0,0.3,0,0.5,0l11.9,26.7c-0.8,1-1.2,2.3-1.2,3.7c0,2,0.9,3.8,2.4,4.9l-2.7,24.2
	c-1.3,0.3-2.5,1-3.4,2.1c-2.2,2.7-1.8,6.6,0.9,8.8c2.7,2.2,6.6,1.8,8.8-0.9c2.1-2.6,1.8-6.3-0.6-8.5l2.7-24.8c2.5-0.8,4.3-3.2,4.3-6
	c0-3.4-2.6-6.1-5.9-6.3l-12.1-27c0.9-1.2,1.4-2.7,1.4-4.3c0-0.7-0.1-1.4-0.3-2l12.5-7.2c1.3,1.1,2.9,1.8,4.7,1.8c0.1,0,0.2,0,0.4,0
	l11.9,31.6l-2.2,27.4c-1.1,0.4-2.1,1-2.8,2c-2.2,2.7-1.8,6.6,0.9,8.8c2.7,2.2,6.6,1.8,8.8-0.9c2.2-2.7,1.8-6.6-0.9-8.8
	c0,0-0.1-0.1-0.1-0.1l2-24l12.5,5.6c0,0.2,0,0.5,0,0.7c0,3.5,2.8,6.3,6.3,6.3c3.5,0,6.3-2.8,6.3-6.3s-2.8-6.3-6.3-6.3
	c-1,0-1.9,0.2-2.7,0.6l-16.1-7.2l-12-32.1c0.5-0.6,0.9-1.4,1.1-2.2h10.8c1.1,2.5,3.6,4.2,6.5,4.2c0.7,0,1.4-0.1,2-0.3l12.6,14.1
	c-0.5,0.9-0.8,2-0.8,3.1c0,3.5,2.8,6.3,6.3,6.3c3.5,0,6.3-2.8,6.3-6.3c0-3.5-2.8-6.3-6.3-6.3c-0.1,0-0.2,0-0.3,0l-13.3-14.8
	c0.4-0.9,0.6-1.9,0.6-2.9c0-0.9-0.2-1.8-0.5-2.6l15.7-16C340.2,176.1,340.6,176.1,341.1,176.1z M236.4,177.3l13.3-26.8
	c0.2,0,0.3,0,0.5,0c0.2,0,0.3,0,0.5,0l13.3,26.8c-0.5,0.5-0.8,1.1-1.1,1.7h-25.3C237.3,178.4,236.9,177.8,236.4,177.3z"/>
</svg>
